<svg xmlns="http://www.w3.org/2000/svg" viewBox="0 0 500 500"><g id="freepik--background-simple--inject-929"><path d="M172.31,381.42C249.18,409.37,528,320.8,411.59,181.76s-136.41,72.59-188.77,69.18c-48.65-3.17-36-182.35-126.49-125.76S104.22,356.66,172.31,381.42Z" style="fill:#BA68C8"></path><path d="M172.31,381.42C249.18,409.37,528,320.8,411.59,181.76s-136.41,72.59-188.77,69.18c-48.65-3.17-36-182.35-126.49-125.76S104.22,356.66,172.31,381.42Z" style="fill:#fff;opacity:0.9"></path></g><g id="freepik--Shadow--inject-929"><ellipse id="freepik--path--inject-929" cx="245.18" cy="412.39" rx="193.89" ry="11.32" style="fill:#f5f5f5"></ellipse></g><g id="freepik--Character--inject-929"><path d="M211.07,219.12s14.88,14.35,16.25,6.49,2.12-32.11,2.12-32.11-4.5-8.38-6.69-5.56c-4,5.19-2.49,30.32-2.49,30.32l-8-3.32Z" style="fill:#ffb573"></path><path d="M211.07,219.12s14.88,14.35,16.25,6.49,2.12-32.11,2.12-32.11-4.5-8.38-6.69-5.56c-4,5.19-2.49,30.32-2.49,30.32l-8-3.32Z" style="opacity:0.1"></path><path d="M229.66,175.36c-2.17-.22-9.64,3.16-10.28,19.4l11.31,1S234.34,175.85,229.66,175.36Z" style="fill:#BA68C8"></path><path d="M229.66,175.36c-2.17-.22-9.64,3.16-10.28,19.4l11.31,1S234.34,175.85,229.66,175.36Z" style="fill:#fff;opacity:0.5"></path><path d="M219.5,192.8c-.05.64-.1,1.28-.12,2l11.31,1s.13-.69.31-1.82Z" style="fill:#BA68C8"></path><path d="M225.44,179.42A37.1,37.1,0,0,0,223,195.08l7.69.68s1.86-10.15,1.22-16.13l-3.42-.66Z" style="opacity:0.1"></path><path d="M266.86,155.51c.77-11.35.56-18.47-7.35-20.74-.58-11.63-23.12-5.37-27,1.06-4.1,6.7,1.77,10,.7,14.56-1.42,6.16-2.32,12.61.45,17.17a5.85,5.85,0,0,0,3.39,2.36c-.63-1.67-2.69-7.47-2.13-10.56,0,0,2.36,10.6,7.55,10.91a15.1,15.1,0,0,0,4.83-1c11.73-3.49,20.54-4,21-8.77A6.78,6.78,0,0,1,266.86,155.51Z" style="fill:#263238"></path><path d="M227.32,238.4s16.88,3.93,41.57-2l.22-8.25-41.79,1.32Z" style="fill:#ffb573"></path><path d="M221.68,361.31l-3.49,39.81h8s9.82-35.19,9.38-41.79Z" style="fill:#ffb573"></path><path d="M218.49,400.72l8.14,0a.74.74,0,0,1,.73.59L229,409a1.25,1.25,0,0,1-.94,1.5l-.27,0c-3.39-.07-6.4-.26-10.61-.26-5,0-3.72.59-9.57.66-3.52,0-4.16-4-2.66-4.17,6.84-.84,8.82-2.93,11.46-5.37A3,3,0,0,1,218.49,400.72Z" style="fill:#263238"></path><path d="M235.53,359.33l-13.85,2L220.48,375l12.27.47C234.42,368.31,235.7,361.81,235.53,359.33Z" style="opacity:0.1"></path><path d="M227.21,236.41c-.4,3.73-3.1,29.42-4.7,70.41-1.73,44.41-3.45,65.78-3.45,65.78l15.23.3a218.22,218.22,0,0,0,8.39-63.73s7.72-25.15,9.17-41c0,0,5.27-13.49.86-31.24A101.86,101.86,0,0,1,227.21,236.41Z" style="fill:#263238"></path><path d="M253.23,263.23l-.85-6.17L248.22,254s-5.22,24.73-1,38.73c2-7.91,4-17.22,4.65-24.55A36.08,36.08,0,0,0,253.23,263.23Z" style="opacity:0.7000000000000001"></path><path d="M272.85,361.31l7.92,39.81h8s-1.59-35.19-2-41.79Z" style="fill:#ffb573"></path><path d="M280.74,400.72l8.13,0a.74.74,0,0,1,.73.59l1.68,7.65a1.25,1.25,0,0,1-.94,1.5l-.27,0c-3.38-.07-6.39-.26-10.61-.26-5,0-3.71.59-9.56.66-3.53,0-4.16-4-2.67-4.17,6.84-.84,8.82-2.93,11.46-5.37A3.06,3.06,0,0,1,280.74,400.72Z" style="fill:#263238"></path><path d="M275.52,374.76l12-.5c-.32-6.67-.62-12.59-.78-14.93l-13.85,2Z" style="opacity:0.1"></path><path d="M279.57,304.9s.37-26.06-2.71-41.68c0,0,1.76-13-7.71-28.91a127.55,127.55,0,0,1-25.34,3.13c.75,4.91,5.13,32.41,14.94,71.38,10.85,43.11,15.14,63.93,15.14,63.93l14.77-.88S290.13,337.93,279.57,304.9Z" style="fill:#263238"></path><path d="M226.88,232.65s17.6,3.3,42.67-1.54c0,0,2-35,3.74-47.72s-17.82-8.8-23.53-8.8S226,171.29,225.12,181,226.88,232.65,226.88,232.65Z" style="fill:#BA68C8"></path><path d="M226.88,232.65s17.6,3.3,42.67-1.54c0,0,2-35,3.74-47.72s-17.82-8.8-23.53-8.8S226,171.29,225.12,181,226.88,232.65,226.88,232.65Z" style="fill:#fff;opacity:0.5"></path><path d="M255.18,179.1l3.59-5.06c-3.67.11-7.11.55-9,.55s-4.95-.34-8.35-.48l.21,4.14L243,182l3.29,1.94,4.55-1.36Z" style="fill:#ffb573"></path><path d="M256.09,156.56c-.84,4.89-1.34,14.5,1.39,17.78,0,0-2.31,8.14-12.81,9.73-4-3.51-2.31-9.65-2.31-9.65,4.76-1.37,5.2-6,4.62-9.75Z" style="fill:#ffb573"></path><path d="M255.3,159l-.44-1.32h0l-7.88,7a14.44,14.44,0,0,1,.09,4.05C255.66,165.32,255.3,159,255.3,159Z" style="opacity:0.1"></path><path d="M258,146.91c-.64,8.12-.74,11.58-4.92,15.68-6.29,6.16-16.13,3.61-17.93-4.55-1.62-7.33-.3-19.35,7.73-22.49A11.12,11.12,0,0,1,258,146.91Z" style="fill:#ffb573"></path><path d="M240.46,150.45a17.2,17.2,0,0,1-2.44,4.18,2.88,2.88,0,0,0,2.36.49Z" style="fill:#ed893e"></path><path d="M242.21,158.56a5.8,5.8,0,0,1-1.11-.1.18.18,0,0,1-.16-.22h0a.19.19,0,0,1,.22-.16,5.27,5.27,0,0,0,4.56-1.28.2.2,0,0,1,.28,0,.19.19,0,0,1,0,.28A5.46,5.46,0,0,1,242.21,158.56Z" style="fill:#263238"></path><path d="M256.65,134.76c3.26,6-6.16,2.57-13.74,5.05-7,2.27-10.61,6.84-9.83.22C234,131.85,251.52,125.34,256.65,134.76Z" style="fill:#263238"></path><path d="M249.85,147.54a.37.37,0,0,1-.27-.16,3.09,3.09,0,0,0-2.41-1.45.4.4,0,0,1-.33-.45.4.4,0,0,1,.33-.33,3.84,3.84,0,0,1,3.06,1.76.4.4,0,0,1-.1.54A.37.37,0,0,1,249.85,147.54Z" style="fill:#263238"></path><path d="M235.3,146.26a.35.35,0,0,1-.25-.14.39.39,0,0,1,0-.55h0a3.91,3.91,0,0,1,3.46-.82.41.41,0,0,1,.25.5.38.38,0,0,1-.48.25,3.07,3.07,0,0,0-2.74.68A.34.34,0,0,1,235.3,146.26Z" style="fill:#263238"></path><path d="M259.26,135.22s4.84-4,1.49-6.7S261.63,131,259.26,135.22Z" style="fill:#263238"></path><path d="M259.06,156.54a6.62,6.62,0,0,1-4.52,1.75c-2.09-.09-2.15-2.26-.77-4.08,1.26-1.6,3.84-3.49,5.55-2.53S260.68,155.08,259.06,156.54Z" style="fill:#ffb573"></path><path d="M252.34,134.77c-10.55,3.46,9.12,18.73,8.89,27.66C265.48,152,263.94,131,252.34,134.77Z" style="fill:#263238"></path><path d="M246.9,184.82c6-.28,11.3-8,13-10.81q-1,0-2,.06c-1.58,2.32-5.81,7.83-10.66,8.44s-5.21-5.76-5.13-8.37l-1.12,0C240.8,177,240.86,185.09,246.9,184.82Z" style="fill:#BA68C8"></path><path d="M246.13,149.63c0,.65-.38,1.17-.8,1.16s-.76-.55-.75-1.2.39-1.17.81-1.16S246.11,149,246.13,149.63Z" style="fill:#263238"></path><path d="M238.79,149.44c0,.66-.38,1.17-.8,1.16s-.76-.55-.75-1.2.39-1.17.81-1.15S238.8,148.79,238.79,149.44Z" style="fill:#263238"></path><path d="M238.24,148.29l-1.55-.49S237.45,149,238.24,148.29Z" style="fill:#263238"></path><path d="M245.58,148.54,244,148S244.79,149.24,245.58,148.54Z" style="fill:#263238"></path><path d="M269.11,181.5h-4.67l-.58,2.4s3.88,13.78,7.69,17.37c.34-4.36.71-8.58,1.07-12.17C271,185,269.11,181.5,269.11,181.5Z" style="opacity:0.1"></path><polygon points="227.32 225.61 201.32 208 207.32 208 228.49 218.92 227.32 225.61" style="fill:#BA68C8"></polygon><path d="M207.32,208h-6l-1-1.54a1.25,1.25,0,0,1,1.05-1.92h5.33a1.24,1.24,0,0,1,1.19,1.59Z" style="fill:#BA68C8"></path><path d="M206.69,204.54h-5.33a1.23,1.23,0,0,0-1.08,1.83h7.53l.07-.24A1.24,1.24,0,0,0,206.69,204.54Z" style="fill:#fff;opacity:0.8"></path><polygon points="222.34 222.24 227.32 225.61 228.49 218.92 224.9 217.07 222.34 222.24" style="opacity:0.2"></polygon><path d="M254.56,225.61l-.6,0-14.48-1.73V206L254,204.3a5,5,0,0,1,3.94,1.23,5,5,0,0,1,1.7,3.77v11.28a5,5,0,0,1-5,5Zm-11.8-4.67,11.59,1.38a1.76,1.76,0,0,0,2-1.74V209.3a1.76,1.76,0,0,0-2-1.75l-11.59,1.38Z" style="fill:#BA68C8"></path><polygon points="253.36 222.2 242.76 220.94 242.76 208.93 251.92 207.84 251.59 204.58 239.48 206.02 239.48 223.85 253.7 225.54 253.36 222.2" style="opacity:0.2"></polygon><path d="M246.05,200H231.33a3.82,3.82,0,0,0-3.79,3.39L225.2,224a4.08,4.08,0,0,0,4,4.53h18.9a4.07,4.07,0,0,0,4-4.53l-2.34-20.64A3.82,3.82,0,0,0,246.05,200Z" style="fill:#BA68C8"></path><path d="M231.33,200a3.82,3.82,0,0,0-3.79,3.39l0,.42h22.4l0-.42a3.82,3.82,0,0,0-3.79-3.39Z" style="fill:#fff;opacity:0.8"></path><path d="M243.52,213.59c-.7-.82-1.4.39-2.29,1.07-.15-3-.68-5.61-2.58-5.61-1.34,0-2,1.29-2.32,3.1-.86-1.07-1.71-2.1-2.29-1.16-.94,1.53,1.31,3.9,2,4.56,0,1.19,0,2.39,0,3.49,0,.8,0,1.57,0,2.3h5.26c0-.73,0-1.5,0-2.3,0-.37,0-.74,0-1.13C242.28,217,244.49,214.74,243.52,213.59Z" style="fill:#BA68C8"></path><path d="M243.52,213.59c-.7-.82-1.4.39-2.29,1.07-.15-3-.68-5.61-2.58-5.61-1.34,0-2,1.29-2.32,3.1-.86-1.07-1.71-2.1-2.29-1.16-.94,1.53,1.31,3.9,2,4.56,0,1.19,0,2.39,0,3.49,0,.8,0,1.57,0,2.3h5.26c0-.73,0-1.5,0-2.3,0-.37,0-.74,0-1.13C242.28,217,244.49,214.74,243.52,213.59Z" style="fill:#fff;opacity:0.6000000000000001"></path><g style="opacity:0.4"><path d="M241,215.7a6.1,6.1,0,0,0,2-1.61c.14-.16-.1-.4-.24-.23a6,6,0,0,1-1.91,1.55c-.2.1,0,.38.16.29Z" style="fill:#fff"></path></g><g style="opacity:0.4"><path d="M243,214.5a5.89,5.89,0,0,1-1.82,2.4c-.16.15.08.38.23.24a6.19,6.19,0,0,0,1.92-2.55.17.17,0,0,0-.33-.09Z" style="fill:#fff"></path></g><g style="opacity:0.4"><path d="M234.6,211.54h0a2.2,2.2,0,0,1,.32.21,9,9,0,0,1,1.48,1.72c.13.17.42,0,.29-.17a8.58,8.58,0,0,0-1.61-1.84.89.89,0,0,0-.52-.26c-.21,0-.22.34,0,.33Z" style="fill:#fff"></path></g><g style="opacity:0.4"><path d="M234.23,211.85a5.5,5.5,0,0,0,1.82,2.66c.15.15.39-.09.24-.24a5.21,5.21,0,0,1-1.74-2.5c0-.22-.35-.13-.32.08Z" style="fill:#fff"></path></g><g style="opacity:0.4"><path d="M237.89,210c-1.27,2.31-1.21,5.3-1.11,7.84a.21.21,0,0,0,.41,0c-.09-2.47-.18-5.38,1.06-7.63.13-.23-.23-.44-.36-.21Z" style="fill:#fff"></path></g><g style="opacity:0.4"><path d="M239.14,210.21c1.09,2.3,1,5.17.88,7.63a.21.21,0,0,0,.41,0c.1-2.54.19-5.47-.93-7.84-.11-.24-.47,0-.36.21Z" style="fill:#fff"></path></g><g style="opacity:0.4"><path d="M238.44,210.11c-.05,2.58-.11,5.15-.16,7.73,0,.27.41.27.42,0,.05-2.58.1-5.15.16-7.73a.21.21,0,0,0-.42,0Z" style="fill:#fff"></path></g><path d="M242.9,218.47h-8.53a.86.86,0,0,0-.79,1.18l.22.53h0l.47,2.69a1.16,1.16,0,0,0,1.13.95h6.44a1.16,1.16,0,0,0,1.14-.95l.47-2.69h0l.22-.53A.86.86,0,0,0,242.9,218.47Z" style="fill:#263238"></path><path d="M276.07,182.62s18.4,23.15,12.75,30.26c-5.5,6.92-23.25,10.08-23.25,10.08l-5.72.58a2.65,2.65,0,0,1-2.76-1.76l-1.55-4.53a2.54,2.54,0,0,1-.09-1.39l.11-.53a2.63,2.63,0,0,1,4-1.72l5.91,3.68s15.5-7.41,15.38-10-9.38-15.37-9.38-15.37Z" style="fill:#ffb573"></path><path d="M271.4,195.25s-12.16-14.09-7.81-18.54c4.72-4.83,14.1,4.41,18.35,10.67Z" style="fill:#BA68C8"></path><path d="M271.4,195.25s-12.16-14.09-7.81-18.54c4.72-4.83,14.1,4.41,18.35,10.67Z" style="fill:#fff;opacity:0.5"></path><path d="M271.4,195.25l10.54-7.87c-.36-.54-.76-1.1-1.2-1.66l-10.65,7.93C270.88,194.64,271.4,195.25,271.4,195.25Z" style="fill:#BA68C8"></path><path d="M206.61,211.43h0a3.11,3.11,0,0,1,3.1-.77l.91.27a3.14,3.14,0,0,1,1.7,1.25l3,4.46a3.13,3.13,0,0,1,.47,2.4l-.73,3.46s-6.28-2.74-7.77-4.4a14.27,14.27,0,0,1-1.38-3.19A3.14,3.14,0,0,1,206.61,211.43Z" style="fill:#ffb573"></path></g></svg>