<svg xmlns="http://www.w3.org/2000/svg" viewBox="0 0 500 500"><g id="freepik--Heart--inject-465"><path id="freepik--heart--inject-465" d="M360.58,28.93c-53.79,0-100.51,37.52-110.58,87.29-10.07-49.77-56.79-87.29-110.58-87.29C78.21,28.93,28.59,77.5,28.59,137.42c0,115.58,103.79,183.71,148.11,212.8,3.92,2.56,7.35,4.78,10,6.68l63.27,39,63.27-39c2.68-1.9,6.11-4.12,10-6.68,44.32-29.09,148.11-97.22,148.11-212.8C471.41,77.5,421.79,28.93,360.58,28.93Z" style="fill:#f5f5f5"></path></g><g id="freepik--Balloons--inject-465"><g id="freepik--balloons--inject-465"><path d="M383.05,343.06c-.06,1.71-.25,3.41-.42,5.11s-.36,3.39-.64,5.08a69.36,69.36,0,0,1-2.21,9.32,70.71,70.71,0,0,1-3.5,9c-1.44,3.06-3.17,6-4.83,8.92-3.31,5.84-6.66,11.65-9.77,17.6s-6.14,12.05-7.94,18.56a45.18,45.18,0,0,0-1.11,21.54c0,.21.34.23.3,0a47.59,47.59,0,0,1,1.37-19.54A93.53,93.53,0,0,1,362,400.19c3.1-5.94,6.46-11.75,9.81-17.55s6.57-11.55,8.72-17.89a64.17,64.17,0,0,0,2.63-10.58,53.38,53.38,0,0,0,.6-5.35,43.43,43.43,0,0,0-.09-5.59c0-.33-.58-.61-.6-.17Z" style="fill:#e0e0e0"></path><path d="M396.53,258.67c1.34,6.54,3.21,13,4.7,19.47a122.25,122.25,0,0,1,2.91,20.22,156.52,156.52,0,0,1-2.78,40.7A102.54,102.54,0,0,1,387.29,373c-6.54,10.4-14.3,20-22,29.47-3.81,4.67-7.76,9.44-9.95,15.11a45,45,0,0,0-2.89,16.61c0,1.33.11,2.66.25,4,0,.21.24.19.23,0a49.35,49.35,0,0,1,2.05-16.91,33.07,33.07,0,0,1,3.24-7.65,67.89,67.89,0,0,1,5.76-8c7.8-9.64,15.86-19,22.73-29.39,6.68-10.07,12.35-21,15.24-32.76a149.25,149.25,0,0,0,3.89-40.68,106.21,106.21,0,0,0-2.34-19.79c-1.49-6.58-3.45-13-5.23-19.54-.44-1.58-.87-3.17-1.29-4.75-.08-.3-.48-.33-.41,0Z" style="fill:#e0e0e0"></path><path d="M444.27,298c-2.55,11.4-5.14,22.78-9.45,33.68a110.09,110.09,0,0,1-15.38,27.24c-7.22,9.26-16,17-25.16,24.3-9.35,7.5-19,14.79-26.89,23.85a84.38,84.38,0,0,0-10.64,15.07,33.39,33.39,0,0,0-4.09,12.18c-.1.9-.1,1.79-.14,2.68,0,.24.34.46.35.14a31.33,31.33,0,0,1,3.19-11.63,77.22,77.22,0,0,1,9.82-15.15C373.47,401,383,393.45,392.36,386c9.25-7.35,18.35-14.9,25.91-24a107.81,107.81,0,0,0,16.06-26.53A152.6,152.6,0,0,0,443.82,303c.3-1.6.53-3.22.76-4.83,0-.17-.25-.45-.31-.2Z" style="fill:#e0e0e0"></path><g id="freepik--Balloon--inject-465"><path d="M394.17,256.6l-1.62,5.25s.58,2.37,4.71,1.62c3.52-.64,3.71-2.76,3.71-2.76l-2.87-4.54Z" style="fill:#BA68C8"></path><path d="M394.17,256.6l-1.62,5.25s.58,2.37,4.71,1.62c3.52-.64,3.71-2.76,3.71-2.76l-2.87-4.54Z" style="fill:#fff;opacity:0.2"></path><g id="freepik--heart--inject-465"><path d="M391.07,208.68c-9.05-7.05-21.79-6.29-28.27,4.75-6.71,11.42-.36,30.06,28.28,42.09a10.49,10.49,0,0,0,11-2c12.11-10.76,18.75-24.57,16.11-36.61C415.14,202.93,397.73,199.65,391.07,208.68Z" style="fill:#BA68C8"></path><path d="M391.07,208.68c-9.05-7.05-21.79-6.29-28.27,4.75-6.71,11.42-.36,30.06,28.28,42.09a10.49,10.49,0,0,0,11-2c12.11-10.76,18.75-24.57,16.11-36.61C415.14,202.93,397.73,199.65,391.07,208.68Z" style="fill:#fff;opacity:0.30000000000000004"></path><path d="M404,203.77c-4.95-.65-9.95.94-12.88,4.91a12.11,12.11,0,0,1,3.76,4.59C395.46,210.29,397.18,204.09,404,203.77Z" style="fill:#BA68C8;opacity:0.6000000000000001"></path><path d="M364.12,226.5c-2.23-9.76,3.61-19.62,8.61-21.46a18.33,18.33,0,0,0-9.93,8.39c-6.71,11.42-.36,30.06,28.28,42.09a10.14,10.14,0,0,0,1.59.51C373.34,247.54,366.13,235.31,364.12,226.5Z" style="fill:#BA68C8;opacity:0.6000000000000001"></path></g><path d="M398.14,256.82a11.33,11.33,0,0,1-5.24.29.51.51,0,0,1,.28-1,9.94,9.94,0,0,0,5.73-.71.5.5,0,0,1,.7.16.52.52,0,0,1-.16.7A5.81,5.81,0,0,1,398.14,256.82Z" style="fill:#37474f"></path></g><g id="freepik--balloon--inject-465"><path d="M444.24,295l-4.05,3.32s-.79,2.19,2.88,3.77c3.14,1.35,4.4-.23,4.4-.23l.12-5.13Z" style="fill:#BA68C8"></path><path d="M444.24,295l-4.05,3.32s-.79,2.19,2.88,3.77c3.14,1.35,4.4-.23,4.4-.23l.12-5.13Z" style="fill:#fff;opacity:0.6000000000000001"></path><g id="freepik--heart--inject-465"><path d="M467.08,255.27c-3.46-10.38-14-16.5-25-11.16-11.35,5.54-16.15,23.69.24,48.36a10,10,0,0,0,9.83,4.19c15.29-2.16,27.85-9.61,32.11-20.58C489.23,263.4,477.13,251.6,467.08,255.27Z" style="fill:#BA68C8"></path><path d="M467.08,255.27c-3.46-10.38-14-16.5-25-11.16-11.35,5.54-16.15,23.69.24,48.36a10,10,0,0,0,9.83,4.19c15.29-2.16,27.85-9.61,32.11-20.58C489.23,263.4,477.13,251.6,467.08,255.27Z" style="fill:#fff;opacity:0.6000000000000001"></path><path d="M479.9,258.17c-3.59-3.13-8.4-4.51-12.82-2.9a11.55,11.55,0,0,1,.56,5.63C469.72,258.87,474.36,254.85,479.9,258.17Z" style="fill:#BA68C8;opacity:0.30000000000000004"></path><path d="M436.27,255.19c3.39-8.93,13.23-13.67,18.17-12.5a17.56,17.56,0,0,0-12.32,1.42c-11.35,5.54-16.15,23.69.24,48.36a10,10,0,0,0,1,1.24C432.49,276.76,433.22,263.25,436.27,255.19Z" style="fill:#BA68C8;opacity:0.30000000000000004"></path></g><path d="M443.08,294.81a10.42,10.42,0,0,0,5.53,2.67.47.47,0,0,0,.49-.47.48.48,0,0,0-.47-.5,9.28,9.28,0,0,1-4.92-2.45A.52.52,0,0,0,443,294a.49.49,0,0,0,0,.68A.69.69,0,0,0,443.08,294.81Z" style="fill:#37474f"></path></g><g id="freepik--balloon--inject-465"><path d="M382.18,338.82l-3.65,5.08s-.24,2.78,4.5,3.46c4,.59,5-1.63,5-1.63l-1.46-6Z" style="fill:#BA68C8"></path><g id="freepik--heart--inject-465"><path d="M396.23,285.88C389,275,375,271.16,363.94,280.74c-11.4,9.92-11.3,32.38,15.29,55.78a11.94,11.94,0,0,0,12.65,1.79c17-7.24,29.19-19.75,30.71-33.73C424.34,288.39,406.71,278.52,396.23,285.88Z" style="fill:#BA68C8"></path><path d="M412,285.24c-5.12-2.5-11.11-2.59-15.72.64a13.76,13.76,0,0,1,2.4,6.33C400.4,289.22,404.51,283.13,412,285.24Z" style="opacity:0.30000000000000004"></path><path d="M360.62,295.36c1.14-11.37,11-19.91,17.1-20.08a20.92,20.92,0,0,0-13.78,5.46c-11.4,9.92-11.3,32.38,15.29,55.78a12,12,0,0,0,1.54,1.14C363,321.45,359.6,305.61,360.62,295.36Z" style="opacity:0.30000000000000004"></path></g><path d="M381.79,339.51a6.69,6.69,0,0,1-1.17-.61.58.58,0,1,1,.66-1,11.11,11.11,0,0,0,6.45,1.31.58.58,0,0,1,.7.43.58.58,0,0,1-.43.7A12.54,12.54,0,0,1,381.79,339.51Z" style="fill:#37474f"></path></g></g><g id="freepik--balloons--inject-465"><path d="M120,335.25a36.31,36.31,0,0,0-.13,5,41.86,41.86,0,0,0,.6,5,58.23,58.23,0,0,0,2.57,9.61,111.44,111.44,0,0,0,8.7,18.09c6.77,11.71,14.66,22.87,18.63,35.94a54.17,54.17,0,0,1,2.23,10.82,46.36,46.36,0,0,1-.39,11.35c0,.16.23.44.29.2,1.52-6.2,1.12-12.79-.2-19a76.68,76.68,0,0,0-7.11-18.85c-6.2-12-14.3-23-19.49-35.54A68,68,0,0,1,122,346.24a53.7,53.7,0,0,1-.9-5.37c-.21-1.81-.43-3.63-.48-5.46,0-.33-.56-.61-.59-.16Z" style="fill:#e0e0e0"></path><path d="M105.44,227.15a191.09,191.09,0,0,1-3.51,26c-1.47,7.11-3.29,14.15-4.84,21.24-.59,2.68-1.14,5.37-1.49,8.09a92.57,92.57,0,0,0-.51,10.27,167.18,167.18,0,0,0,.81,21.46,95.55,95.55,0,0,0,2.8,14.72c1.12,4.07,2.57,8,4,12A111.43,111.43,0,0,0,113,361.78a181.5,181.5,0,0,0,13.79,18.43c2.61,3.15,5.26,6.28,7.88,9.43,3.61,4.33,7.35,8.67,10.53,13.33a36.54,36.54,0,0,1,5.15,10.71,52,52,0,0,1,1.95,11.68,44,44,0,0,1-.05,5.74c0,.19.21.3.23.07a43.72,43.72,0,0,0-3-22.1,51.45,51.45,0,0,0-6.87-10.82c-2.66-3.45-5.41-6.84-8.17-10.21-10-12.19-20.26-24.3-26.84-38.75a150.67,150.67,0,0,1-6-16.11,97,97,0,0,1-3.39-13.63,128.37,128.37,0,0,1-1.59-19.09c-.13-7.06-.27-14.28,1-21.26,1.19-6.62,2.89-13.14,4.28-19.73a190,190,0,0,0,3.76-25.23c.16-2.3.24-4.61.26-6.92,0-.23-.41-.49-.43-.17Z" style="fill:#e0e0e0"></path><path d="M56.2,279.27a139.8,139.8,0,0,0,9.27,38.1,127.8,127.8,0,0,0,15.88,28.48,154.89,154.89,0,0,0,22.8,24.59c10,8.75,20.91,16.54,30,26.26a92.57,92.57,0,0,1,12.52,16.67,38.91,38.91,0,0,1,5.22,13.43,26.41,26.41,0,0,1,.37,3.19c0,.23.36.45.35.14a33.35,33.35,0,0,0-.64-6,31.88,31.88,0,0,0-2-6.1A73.41,73.41,0,0,0,139.88,402c-8.42-10.51-19.14-18.72-29.44-27.27A185,185,0,0,1,95.27,361c-3.53-3.67-6.92-7.49-10.09-11.48a129,129,0,0,1-16.91-27.68A155.78,155.78,0,0,1,57.48,285q-.49-2.82-1-5.66c0-.24-.35-.34-.32,0Z" style="fill:#e0e0e0"></path><g id="freepik--balloon--inject-465"><path d="M108.34,224l1.54,5.27s-.61,2.37-4.72,1.56c-3.52-.7-3.67-2.82-3.67-2.82l2.93-4.5Z" style="fill:#BA68C8"></path><path d="M108.34,224l1.54,5.27s-.61,2.37-4.72,1.56c-3.52-.7-3.67-2.82-3.67-2.82l2.93-4.5Z" style="fill:#fff;opacity:0.2"></path><g id="freepik--heart--inject-465"><path d="M112.12,176.14c9.14-6.93,21.87-6,28.2,5.14,6.54,11.52-.07,30.07-28.87,41.69a10.46,10.46,0,0,1-11-2.19c-12-10.94-18.41-24.83-15.59-36.84C88.13,170.05,105.59,167,112.12,176.14Z" style="fill:#BA68C8"></path><path d="M112.12,176.14c9.14-6.93,21.87-6,28.2,5.14,6.54,11.52-.07,30.07-28.87,41.69a10.46,10.46,0,0,1-11-2.19c-12-10.94-18.41-24.83-15.59-36.84C88.13,170.05,105.59,167,112.12,176.14Z" style="fill:#fff;opacity:0.30000000000000004"></path><path d="M99.3,171.05c5-.58,10,1.08,12.82,5.09a12.08,12.08,0,0,0-3.83,4.54C107.7,177.69,106.07,171.46,99.3,171.05Z" style="fill:#BA68C8;opacity:0.6000000000000001"></path><path d="M138.81,194.34c2.37-9.73-3.33-19.67-8.3-21.59a18.43,18.43,0,0,1,9.81,8.53c6.54,11.52-.07,30.07-28.87,41.69a10.51,10.51,0,0,1-1.6.49C129.3,215.24,136.68,203.11,138.81,194.34Z" style="fill:#BA68C8;opacity:0.6000000000000001"></path></g><path d="M104.36,224.17a11.2,11.2,0,0,0,5.25.36.49.49,0,0,0,.35-.62.51.51,0,0,0-.62-.36,9.83,9.83,0,0,1-5.72-.79.5.5,0,0,0-.7.15.51.51,0,0,0,.15.7A4.85,4.85,0,0,0,104.36,224.17Z" style="fill:#37474f"></path></g><g id="freepik--balloon--inject-465"><path d="M57.28,274.77,60.35,279s.2,2.33-3.75,2.91c-3.38.5-4.2-1.35-4.2-1.35l1.2-5Z" style="fill:#BA68C8"></path><g id="freepik--heart--inject-465"><path d="M45.38,230.55c6-9.14,17.74-12.36,27-4.39,9.56,8.26,9.55,27-12.62,46.68a10,10,0,0,1-10.56,1.53c-14.23-6-24.47-16.42-25.78-28.11C21.88,232.74,36.6,224.44,45.38,230.55Z" style="fill:#BA68C8"></path><path d="M32.24,230.07c4.27-2.11,9.27-2.21,13.14.48a11.42,11.42,0,0,0-2,5.3C41.9,233.35,38.45,228.28,32.24,230.07Z" style="opacity:0.30000000000000004"></path><path d="M75.17,238.37c-1-9.5-9.28-16.61-14.35-16.74a17.48,17.48,0,0,1,11.53,4.53c9.56,8.26,9.55,27-12.62,46.68a9.54,9.54,0,0,1-1.27,1C73.3,260.19,76.06,246.94,75.17,238.37Z" style="opacity:0.30000000000000004"></path></g><path d="M58.44,274.92a10.43,10.43,0,0,1-6,1.17.47.47,0,0,1-.35-.58.48.48,0,0,1,.58-.36A9.31,9.31,0,0,0,58,274a.5.5,0,0,1,.67.13.47.47,0,0,1-.12.67Z" style="fill:#37474f"></path></g><g id="freepik--balloon--inject-465"><path d="M121.5,331.09l3.9,4.89s.37,2.77-4.32,3.69c-4,.78-5.08-1.39-5.08-1.39l1.15-6Z" style="fill:#BA68C8"></path><path d="M121.5,331.09l3.9,4.89s.37,2.77-4.32,3.69c-4,.78-5.08-1.39-5.08-1.39l1.15-6Z" style="fill:#fff;opacity:0.6000000000000001"></path><g id="freepik--heart--inject-465"><path d="M104.83,278.92c6.66-11.26,20.51-15.76,32-6.74,11.88,9.34,12.9,31.77-12.49,56.47a11.94,11.94,0,0,1-12.54,2.42c-17.34-6.38-30.15-18.27-32.36-32.16C76.87,282.84,94,272.1,104.83,278.92Z" style="fill:#BA68C8"></path><path d="M104.83,278.92c6.66-11.26,20.51-15.76,32-6.74,11.88,9.34,12.9,31.77-12.49,56.47a11.94,11.94,0,0,1-12.54,2.42c-17.34-6.38-30.15-18.27-32.36-32.16C76.87,282.84,94,272.1,104.83,278.92Z" style="fill:#fff;opacity:0.6000000000000001"></path><path d="M89.1,279.07c5-2.75,11-3.15,15.73-.15a13.79,13.79,0,0,0-2.09,6.44C100.83,282.46,96.42,276.59,89.1,279.07Z" style="fill:#BA68C8;opacity:0.30000000000000004"></path><path d="M140.86,286.61c-1.7-11.29-12-19.33-18.08-19.2a20.93,20.93,0,0,1,14,4.77c11.88,9.34,12.9,31.77-12.49,56.47a11.34,11.34,0,0,1-1.48,1.21C139.84,312.79,142.4,296.8,140.86,286.61Z" style="fill:#BA68C8;opacity:0.30000000000000004"></path></g><path d="M121.92,331.76a6.6,6.6,0,0,0,1.14-.66.6.6,0,0,0,.11-.82.58.58,0,0,0-.81-.1A11.22,11.22,0,0,1,116,331.8a.58.58,0,0,0-.22,1.14A12.42,12.42,0,0,0,121.92,331.76Z" style="fill:#37474f"></path></g></g></g><g id="freepik--Characters--inject-465"><g id="freepik--Family--inject-465"><g id="freepik--Character--inject-465"><g id="freepik--Bottom--inject-465"><path d="M150.2,432.49c.16.32-3.3,2.66-5.75,1.68-2.83-1.13-8.77-5.61-11.63-14s-2.45-13.95-1.28-18.47,2.84-10.87,1.89-14.84c-.89-3.69-1.12-8.07-.58-9.66s5.33-3.79,5.33-3.79Z" style="fill:#263238"></path><path d="M153.65,368.73s-.87-1.54-2.06-1.2c-1.42.41-2.29,1.09-4.6,1.93-6.46,2.37-8.82,2-11.27,5.23-1,2.77-.3,7.54.05,11.67s-.49,9.73-1.77,14.83c-1.33,5.29-.64,14.67,1.84,19.85,3.77,7.9,8.5,11.89,12.2,12,4.58.14,5.92-2.42,5.78-13.6,0-2.12.68-9.95,1-12.65a52.25,52.25,0,0,1,7.6-22.54C162.91,383.49,152.79,369.33,153.65,368.73Z" style="fill:#BA68C8"></path><path d="M153.65,368.73s-.87-1.54-2.06-1.2c-1.42.41-2.29,1.09-4.6,1.93-6.46,2.37-8.82,2-11.27,5.23-1,2.77-.3,7.54.05,11.67s-.49,9.73-1.77,14.83c-1.33,5.29-.64,14.67,1.84,19.85,3.77,7.9,8.5,11.89,12.2,12,4.58.14,5.92-2.42,5.78-13.6,0-2.12.68-9.95,1-12.65a52.25,52.25,0,0,1,7.6-22.54C162.91,383.49,152.79,369.33,153.65,368.73Z" style="opacity:0.4"></path><path d="M151.75,369.57c7.91-5.94,13.42-10.69,19.34-20.54s19.84-33.65,19.84-33.65l27.7,21.05s-50.87,43.07-57.46,50a56.35,56.35,0,0,0-6.31,22.24c-.69,9.75-1.82,11.1-4.73,9.71s-7.15-6.93-6.37-16.6,3.48-15.48,3.27-21S146.69,373.32,151.75,369.57Z" style="fill:#ffa8a7"></path><path d="M237.46,182.09c5.38,31,11.44,97,12.5,108.93s-1.21,13.21-7.77,22.68-56.53,52.64-56.53,52.64c-8.25-3-14-8.13-15.57-16.48,0,0,14.11-24.52,21-36.41,8.19-14.1,18.52-19.46,18.52-19.46l-17.22-59.05-14.31-53.67Z" style="fill:#455a64"></path><path d="M215.93,250.83l-1,.19c.73,3.73,1.72,8.51,2.78,13.58,2.54,12.23,5.43,26.08,5.61,30.23.16,3.5-3.16,5.85-7.75,9.1a70,70,0,0,0-8.48,6.74c-8.08,7.79-27.09,37.55-33.36,47.52.21.28.43.56.66.83,6-9.59,25.43-39.95,33.4-47.63a68.58,68.58,0,0,1,8.36-6.64c4.66-3.31,8.35-5.92,8.17-10-.19-4.23-3.08-18.12-5.63-30.38C217.65,259.33,216.66,254.55,215.93,250.83Z" style="fill:#37474f"></path><path d="M206.62,302.21c.16-1.63.46-4,.84-6.89a55.79,55.79,0,0,0-16.37,18.13l-.46.79-3.36,44.26,5.8,1.38c2.44-2.13,5.33-4.67,8.48-7.46C203.08,337.4,206,308.75,206.62,302.21Z" style="fill:#37474f"></path><path d="M199,257.72l9.24,31.69c1.78-12.6,5.61-35.35,5.61-35.35,2.74-1.39,15.37-6.35,16.58-17.54l-11.59-4.75Z" style="fill:#37474f"></path><path d="M228.68,453.17c.36,0,.9,4.14-1.07,5.9-2.27,2-8.94,5.34-17.74,4.14s-13.57-4-17.09-7.1-8.46-7.39-12.44-8.31c-3.7-.86-7.72-2.61-8.9-3.8s-1-6.46-1-6.46Z" style="fill:#263238"></path><path d="M172.76,420a2.61,2.61,0,0,0-1.53,2,12,12,0,0,0-.11,2.61,24.77,24.77,0,0,1-.19,3.85c-.11.66-.28,1.3-.41,1.95a24.87,24.87,0,0,0,.07,9c.48,2.7,6.51,4.59,10.37,6.12s8.48,4.78,12.48,8.21,12.83,7.12,18.57,7.22c8.76.15,14.44-2.3,16.2-5.56,2.17-4,.47-6.38-9.6-11.24-1.9-.92-8.59-5.05-10.87-6.54-6.17-4.05-12.44-9.44-15.27-16.58C192.14,420.16,172.89,420,172.76,420Z" style="fill:#BA68C8"></path><path d="M172.76,420a2.61,2.61,0,0,0-1.53,2,12,12,0,0,0-.11,2.61,24.77,24.77,0,0,1-.19,3.85c-.11.66-.28,1.3-.41,1.95a24.87,24.87,0,0,0,.07,9c.48,2.7,6.51,4.59,10.37,6.12s8.48,4.78,12.48,8.21,12.83,7.12,18.57,7.22c8.76.15,14.44-2.3,16.2-5.56,2.17-4,.47-6.38-9.6-11.24-1.9-.92-8.59-5.05-10.87-6.54-6.17-4.05-12.44-9.44-15.27-16.58C192.14,420.16,172.89,420,172.76,420Z" style="opacity:0.4"></path><path d="M236.59,182.15c.61,6-3.57,32.3-30.11,50.23-2.2,26.53-6.13,64.44-6.49,83.69-.28,14.44-5.55,74.12-6.33,82.63-.49,6.94-.94,13.42-1.06,17.75-.1,4.13,2.77,9.19,5.38,12.07,2.86,3.16,9,8.12,13.6,11.59,4.18,3.14,7.54,5,4.19,6.94-4.05,2.39-9.69,1.08-13.8-1a105.19,105.19,0,0,1-15.28-10c-5.65-4.3-14.09-7.17-14.1-13.6a40.33,40.33,0,0,0,.19-4.85c-.15-2.84-.35-4.14-1.4-12.16h0s-8-43.35-8.56-56.21c-.49-11.07,3.18-30.5,3.18-30.5l-8-60.53c-3-24.83-3.18-44.43,20-76.9Z" style="fill:#ffa8a7"></path><path d="M237.46,182.09c4,31.45,8.12,54.49-28.53,68.81,0,0-3.41,40.6-6.35,63.19-2.82,21.66-6.22,60.26-6.22,60.26a42.91,42.91,0,0,1-15.13,2.6,28.18,28.18,0,0,1-15.44-4.27s-4.41-19.14-3.57-32,2.53-24,2.53-24-8-50-9.13-64.07-4.3-26.78,7.1-45.84c10.19-17,16.9-24.9,16.9-24.9Z" style="fill:#455a64"></path><path d="M237.46,182.09c4,31.45,8.12,54.49-28.53,68.81,0,0-3.41,40.6-6.35,63.19-2.82,21.66-6.22,60.26-6.22,60.26a42.91,42.91,0,0,1-15.13,2.6,28.18,28.18,0,0,1-15.44-4.27s-4.41-19.14-3.57-32,2.53-24,2.53-24-8-50-9.13-64.07-4.3-26.78,7.1-45.84c10.19-17,16.9-24.9,16.9-24.9Z" style="fill:#455a64"></path><path d="M197.13,204.2h-1c-.28,23.17-13.18,35-25.34,38.48.32-13.17,2.24-26.89,7.64-37.34l-.89-.46c-12.31,23.84-6.8,64.17-5,77.42,2.69,19.76,3.67,33.13,1.08,47.19-2.12,11.53-2.56,30.51-1.31,46.18l1,.29c-1.28-15.65-.86-34.74,1.27-46.29,2.61-14.19,1.64-27.64-1.07-47.5-1-7.17-3-22.33-2.77-38.44C183.37,240.27,196.84,228.11,197.13,204.2Z" style="fill:#37474f"></path></g><g id="freepik--Top--inject-465"><g id="freepik--top--inject-465"><g id="freepik--Chest--inject-465"><path id="freepik--chest--inject-465" d="M168.53,184.39c1.24-6.52-2.29-16.14-4.61-31.59,7.36,1,17.05-4.79,19-11,2.21-7-8.1-14.67-14-22.82,6.55-2.29,13.78-4.66,15.38-4.89,5.31-.76,10.12-1.13,10.12-1.13,7.77.78,14.67.24,19.95.24a42.36,42.36,0,0,1,7.09,1.22c5.65,1.66,14.47,10.73,22.92,23.94,4.69,7.35,6.95,19.85-3.43,26.37a106.33,106.33,0,0,1-1.91,16.12l3.41,34.54s-7.9,11.12-40.79,11.12S157.14,218,157.14,218,159.57,206.69,168.53,184.39Z" style="fill:#BA68C8"></path><path id="freepik--chest--inject-465" d="M168.53,184.39c1.24-6.52-2.29-16.14-4.61-31.59,7.36,1,17.05-4.79,19-11,2.21-7-8.1-14.67-14-22.82,6.55-2.29,13.78-4.66,15.38-4.89,5.31-.76,10.12-1.13,10.12-1.13,7.77.78,14.67.24,19.95.24a42.36,42.36,0,0,1,7.09,1.22c5.65,1.66,14.47,10.73,22.92,23.94,4.69,7.35,6.95,19.85-3.43,26.37a106.33,106.33,0,0,1-1.91,16.12l3.41,34.54s-7.9,11.12-40.79,11.12S157.14,218,157.14,218,159.57,206.69,168.53,184.39Z" style="fill:#fff;opacity:0.55"></path><path d="M195.89,164.64a33.45,33.45,0,0,1,3.07,1.91,16.56,16.56,0,0,0,8.89,2.31A19.72,19.72,0,0,0,221,163.15c.05-.05.11.06.08.11a16.72,16.72,0,0,1-12.83,8.13,18.74,18.74,0,0,1-7.39-.94c-2.14-.71-5.67-2.08-6.62-4.32C193.82,165.21,195.07,164.27,195.89,164.64Z" style="fill:#BA68C8;opacity:0.5"></path></g><g id="freepik--chest--inject-465"><path id="freepik--Hair--inject-465" d="M228.31,99.31A11.7,11.7,0,0,0,231,92.38c0-1.4-.2-2.76-.11-4.16a12.55,12.55,0,0,1,1.77-4.88c.72-1.35,1.84-2.16,2.35-3.63a8.5,8.5,0,0,0,.22-5,8,8,0,0,0-2.89-4.29c-1.48-1.1-3.08-1.51-4-3.26a7.77,7.77,0,0,1-.37-5.73c.56-2.06,1.21-4.34,0-6.33A10.33,10.33,0,0,0,223.55,51a26.19,26.19,0,0,0-3.36-1.45A14.06,14.06,0,0,1,217,48.4a31.78,31.78,0,0,1-2.68-2c-1.83-1.51-3.45-3.31-5.56-4.45a14.22,14.22,0,0,0-5.6-1.6A12.15,12.15,0,0,0,198,41,22.76,22.76,0,0,0,192,44c-1.18.84-2.27,1.86-3.71,2-2.46.31-4.67.56-5.58.73a20.55,20.55,0,0,0-5.79,2c-3.68,1.91-5.42,5.29-6.3,9.19-.31,1.38.07,3.16-.57,4.45s-2.39,1.31-3.55,1.66a15.67,15.67,0,0,0-5.95,3.65A7.78,7.78,0,0,0,158.19,74c.06,2.4,1.53,3.67,2.22,5.79a8.35,8.35,0,0,1,.29,3.06c-.24,1.26-1.55,2.25-2,3.48a12,12,0,0,0,0,7.9,8.5,8.5,0,0,0,5.73,5.65c2.35.76,5,.65,6.94,2.31,1.17,1,1.78,2.5,2.81,3.64a9.36,9.36,0,0,0,4.26,2.2c2.05.51,4.44-.61,6.28-1.36,2.89-1.18,6.3-2.21,9.38-1.32,1.7.49,3.25,1.42,4.91,2,2.06.72,4.67.12,6.65-.63a16.38,16.38,0,0,0,3.55-2c1.83-1.27,3.46-2.55,5.8-2.65,3.52-.16,7.08.94,10.43-.56A8,8,0,0,0,228.31,99.31Z" style="fill:#263238"></path><g id="freepik--Head--inject-465"><path d="M172.21,81.82c1.31-2.35,4.76-4,7.31-2.57,2.72,1.52,2.87,2.87,4,4.69s4.94,1.46,5.48-6.13c.5-7.08.18-12.88,2.71-16.83,3.38-5.25,10.68-2.73,14.7-.7,1.93-3.39,5.39-5.2,9-3.49S222,62.71,223.86,76c1.92,13.54-1.4,22.51-4.4,25-2.28,1.85-4.7,3.17-9.8,3.66l.52,4.38h0c.28,1.92,1.6,4.09,4.1,4.14,3.45,3.49,3.27,8-4.26,9.6-13.39,2.91-23.31-5.08-26-8.63,2.72-.65,3.58-1.71,3-6h0l-2-15.28a4.33,4.33,0,0,1-3.23,2.31c-2.75.66-5-.6-6.79-2.37C171.17,88.86,170.61,84.7,172.21,81.82Z" style="fill:#b16668"></path><path d="M220.44,72.73c-.82,1.11-2.16.08-3.36.32a2.67,2.67,0,0,0-.7.21,2.89,2.89,0,0,0-.51.31,1.09,1.09,0,0,0-.17.13l-.09.08-.19.2c-.06.07-.1.15-.15.22l-.05.07a2,2,0,0,0-.28,1.13,1.91,1.91,0,0,0,.07.52,2.18,2.18,0,0,0,4.21-1.14,2.26,2.26,0,0,0-.15-.39A1.48,1.48,0,0,0,220.44,72.73Z" style="fill:#263238"></path><path d="M196.41,76.23c1.24.62,2-.91,3.14-1.23a2.54,2.54,0,0,1,.73-.13,2.88,2.88,0,0,1,.59,0l.21,0,.12,0a1.34,1.34,0,0,1,.26.09l.24.13.07,0a2,2,0,0,1,.76.87,2.67,2.67,0,0,1,.17.5,2.18,2.18,0,1,1-4.27.89,2,2,0,0,1,0-.42A1.49,1.49,0,0,1,196.41,76.23Z" style="fill:#263238"></path><path d="M219.24,70.18,214.33,68a2.59,2.59,0,0,1,3.47-1.42A2.83,2.83,0,0,1,219.24,70.18Z" style="fill:#263238"></path><path d="M200.46,69.07l-4.75,3.25a2.76,2.76,0,0,1,.64-3.95A3,3,0,0,1,200.46,69.07Z" style="fill:#263238"></path><path d="M203.12,88.78l7.08,1.29A3.45,3.45,0,0,1,206.14,93,3.77,3.77,0,0,1,203.12,88.78Z" style="fill:#9a4a4d"></path><path d="M207.72,92.93a4.57,4.57,0,0,0-4.33-3.17l-.26,0a3.76,3.76,0,0,0,3,3.23A3.35,3.35,0,0,0,207.72,92.93Z" style="fill:#f28f8f"></path><polygon points="207.97 72.79 210.46 85.76 217.45 82.58 207.97 72.79" style="fill:#9a4a4d"></polygon><path d="M209.66,104.62a40.86,40.86,0,0,1-14.49-2.46c-3.15-1.23-6-4.84-7.25-8.17a12.25,12.25,0,0,0,5.7,10.11c5.52,3.51,16.39,3.48,16.39,3.48Z" style="fill:#9a4a4d"></path><path d="M178,91.78a1.79,1.79,0,1,0,1.62-2A1.8,1.8,0,0,0,178,91.78Z" style="fill:#fafafa"></path></g></g></g></g></g><g id="freepik--characters--inject-465"><g id="freepik--Arm--inject-465"><path id="freepik--arm--inject-465" d="M267.83,88.82c4.45,0,7.14,1.14,10.56,3.41,2.33,1.55,11.59,8.33,11.59,8.33l9.1,7s16.35-15.21,21.77-16.11l-.14,15.75s-10.69,11-14.4,15.62c-2.58,3.19-5.44,5.45-10.36,2.53s-23.7-15.81-23.7-15.81Z" style="fill:#b16668"></path><path d="M267.83,88.43a18.66,18.66,0,0,1,9.38,2.67c2.45,1.55,14.67,10.39,14.67,10.39s-3.19,11.12-10.94,12.9l-11.85-6.53Z" style="fill:#37474f"></path></g><g id="freepik--Chartacter--inject-465"><g id="freepik--bottom--inject-465"><path d="M287.85,405.16c0-3.48,2.21-19,2.21-19l-24.35-.87s1.51,17.25.3,22.58c-.81,3.55-5,9.05-6.24,10.82s15.21,2.46,21.28.87,7.58-4.25,7.72-7.9A17.93,17.93,0,0,0,287.85,405.16Z" style="fill:#ffa8a7"></path><path d="M232.08,442.42c-.38,0-.7,3.93,1.49,5.42,2.54,1.73,9.81,4.36,19.07,2.63s14.13-4.71,17.67-7.81,8.51-7.47,12.67-8.61c3.87-1.05,8-3,9.2-4.15s.67-6.09.67-6.09Z" style="fill:#263238"></path><path d="M287.85,405.16a1.48,1.48,0,0,1,1.49,1c.38,1.33,1,5.25,1.72,7.43,1.07,3,2.07,9.32,1.73,11.87s-6.62,4.73-10.61,6.43-8.7,5-12.72,8.51-13.15,7.65-19.24,8c-7.2.44-15.44-1.13-17.51-4.05-2.55-3.61-4.52-7.87,5.85-13.1,2-1,8.8-5.29,11.12-6.85,6.29-4.19,10.66-8,13.22-14.8a2.83,2.83,0,0,1,3.46-2.44c1.79.11,8.94.52,10.61,1.11,1.47.53,3.55,1.11,3.64,2.79a5.09,5.09,0,0,1-.29,1.72c-.11.35-.17.81.17,1s.71-.07,1-.32a26.69,26.69,0,0,0,2.66-3.34,10.46,10.46,0,0,1,1.58-1.68,18.82,18.82,0,0,0,1.76-1.21C288.08,406.66,287.87,405.94,287.85,405.16Z" style="fill:#455a64"></path><path d="M269.46,440.45c1.77-1.52,3.65-3,5.56-4.35h0s-12.08,7.8-17.37,5c-3.4-1.81-2-4.39-2-5.18s-11.88-5.59-15.08-5.72h0c-.85.51-1.57.92-2,1.14-10.37,5.23-8.4,9.49-5.84,13.1,2.06,2.92,8.09,4.89,17.39,4.26C256.19,448.27,265.3,444.05,269.46,440.45Z" style="fill:#37474f"></path><path d="M256.38,433.54c-6.47,2.86-3.56,3.8-1.69,3.92s12.64-6.59,19.12-12c6.76-5.6,10.86-11.51,13.37-13.57.94-.77,1.94-1.7,2.83-2.57-.27-1.32-.49-2.52-.67-3.15a1.48,1.48,0,0,0-1.49-1c0,.78.23,1.5-.38,2.13a18.82,18.82,0,0,1-1.76,1.21,10.46,10.46,0,0,0-1.58,1.68,26.69,26.69,0,0,1-2.66,3.34C276.13,420.62,262.85,430.67,256.38,433.54Z" style="fill:#37474f"></path><path d="M255.1,436.54a.71.71,0,0,0,.41-.17.56.56,0,0,0,0-.84c-2-2-11.23-6.33-16.08-5.51a.62.62,0,0,0-.54.7.63.63,0,0,0,.76.48c4.53-.75,13.29,3.6,14.89,5.15A.68.68,0,0,0,255.1,436.54Z" style="fill:#263238"></path><path d="M260.67,432.9a.7.7,0,0,0,.41-.16.57.57,0,0,0,0-.85c-2-2-11.22-6.32-16.07-5.5a.61.61,0,0,0-.54.69.64.64,0,0,0,.76.49c4.53-.75,13.29,3.59,14.89,5.14A.68.68,0,0,0,260.67,432.9Z" style="fill:#263238"></path><path d="M266.25,429.43a.7.7,0,0,0,.41-.16.56.56,0,0,0,0-.85c-2-2-11.22-6.33-16.07-5.5a.62.62,0,0,0-.54.7.64.64,0,0,0,.76.48c4.53-.76,13.29,3.59,14.89,5.15A.67.67,0,0,0,266.25,429.43Z" style="fill:#263238"></path><path d="M271.38,425.56a.68.68,0,0,0,.4-.17.56.56,0,0,0,0-.85c-2-2-11.24-6.31-16.07-5.5a.62.62,0,0,0-.54.7.64.64,0,0,0,.76.48c4.52-.75,13.29,3.6,14.89,5.15A.66.66,0,0,0,271.38,425.56Z" style="fill:#263238"></path><path d="M276.4,421.69a.64.64,0,0,0,.39-.16.55.55,0,0,0,0-.85c-2.77-2.79-12.35-6.3-17.19-5.48a.62.62,0,0,0-.54.7.65.65,0,0,0,.76.48c4.36-.74,13.53,2.64,16,5.12A.68.68,0,0,0,276.4,421.69Z" style="fill:#263238"></path><path d="M355.82,404.59s-.54-5.8-1.44-18.31L333,390.39l5.48,18.05s.29,6.07,2.41,9.09,14.74,1.61,16.22-2.55S355.82,404.59,355.82,404.59Z" style="fill:#ffa8a7"></path><path d="M340.92,445.58c.92,5.23,2.32,8.59,5,11.34s7.37,3.06,11.9,1.48,10.2-4.88,11.08-9.63.3-7.85-1.23-12.6Z" style="fill:#263238"></path><path d="M355.82,404.59c1.91-.17,2.89,6.86,4.68,13.81,1.92,7.46,5.16,10.18,6.82,16.28,1.9,7,1.73,10.23-1.07,15s-13.78,10.68-20,5.32c-5.08-4.38-5.81-9.94-6.09-17.13-.3-7.44-.42-12.68-1.36-18.22-.9-5.29-1.88-10.4-.28-11.24.2.77.42,1.74.63,2.5.16.57.64,3.44,1.7,3.31a8,8,0,0,0-.17-2,2.09,2.09,0,0,1,.35-1.81,4.45,4.45,0,0,1,2-1c1.84-.56,3.7-1.09,5.59-1.5.94-.2,1.89-.38,2.84-.51a9.46,9.46,0,0,1,2.43-.08,1.5,1.5,0,0,1,1.1.57,1.7,1.7,0,0,1,.18.8,4.4,4.4,0,0,0,.39,1.43c.09.21.3.44.57.34a.43.43,0,0,0,.26-.47C356.36,409.09,355.91,405,355.82,404.59Z" style="fill:#455a64"></path><path d="M366.69,432.71c.29,1,2.08,7.66-.19,9.24-2.46,1.71-4.4-3.45-4.4-3.45s-6.21-.56-14.75,3.73c.56,1-.45,4.89-3,4.48s-4.2-8.1-4.22-8.2c.31,6.89,1.14,12.26,6.07,16.51,6.22,5.36,17.21-.54,20-5.32s3-8.05,1.07-15C367.13,434,366.92,433.33,366.69,432.71Z" style="fill:#37474f"></path><path d="M361.45,439.06c.29,2.58,3.48,1.23,3.27-2.44s-3.63-11.94-4.22-18.22c-1.79-6.95-2.77-14-4.68-13.81,0,.08.44,3.69.44,3.69s.12,1.12.17,1.68c.57,5.26,2.52,15.29,3.58,20A65.88,65.88,0,0,1,361.45,439.06Z" style="fill:#37474f"></path><path d="M348.36,442a65.57,65.57,0,0,1-2.69-8.79c-1.13-4.68-3.76-14.44-5.57-19.45a10.52,10.52,0,0,1-1-2.84c-.2-.71-.4-1.6-.59-2.34a.88.88,0,0,1-.05-.15c-1.15.62-.95,3.48-.41,7,.44,2,1.12,4.53,2,7.53,2.23,5.91,2.8,14.88,4.22,18.27S349.24,444.46,348.36,442Z" style="fill:#37474f"></path><path d="M347.18,442.47a.77.77,0,0,0,.25-.1A29.33,29.33,0,0,1,362,439.06a.79.79,0,0,0,.82-.52c.07-.3-.18-.57-.57-.59a30.41,30.41,0,0,0-15.54,3.55.51.51,0,0,0-.22.78A.75.75,0,0,0,347.18,442.47Z" style="fill:#263238"></path><path d="M345,437.1a.92.92,0,0,0,.23-.09,36.4,36.4,0,0,1,16.28-3.7.79.79,0,0,0,.8-.54c.06-.31-.2-.57-.59-.58a37.46,37.46,0,0,0-17.19,3.92c-.34.19-.46.53-.26.78A.72.72,0,0,0,345,437.1Z" style="fill:#263238"></path><path d="M360.56,428.05a.77.77,0,0,0,.57-.45c.09-.31-.14-.59-.51-.64-8.75-1-16.84,3.6-17.19,3.8a.51.51,0,0,0-.22.78.82.82,0,0,0,1,.09c.08,0,7.95-4.5,16.08-3.56A1,1,0,0,0,360.56,428.05Z" style="fill:#263238"></path><path d="M359.58,423.1a.74.74,0,0,0,.56-.44c.1-.31-.12-.59-.49-.64a28.14,28.14,0,0,0-17.54,3.8.5.5,0,0,0-.16.79.82.82,0,0,0,1,0,26.8,26.8,0,0,1,16.33-3.53A.8.8,0,0,0,359.58,423.1Z" style="fill:#263238"></path><path d="M358.45,417.55a.76.76,0,0,0,.56-.44c.11-.3-.11-.59-.48-.65-9-1.27-17.3,3.76-17.65,4a.5.5,0,0,0-.18.78.79.79,0,0,0,1,.06c.08,0,8.06-4.9,16.45-3.72A.86.86,0,0,0,358.45,417.55Z" style="fill:#263238"></path><path d="M339.29,205.82c4.7,48.5,8.23,114.58,8.23,114.58.41,3.69,3.13,10,5.23,28.12,2.22,19.16,3.1,46.45,3.1,46.45s-11.06,7.58-22,4.15c0,0-12.57-42.43-18.56-64.94-5.66-21.32-14.63-61.74-14.63-61.74l-4.91,40.24s1,13.83.75,23.53c-.27,11.27-7.32,61.33-7.32,61.33s-11.27,4.91-23.66.83c0,0-4.7-70.85-5.26-84.39-1.09-26.57,1.09-78.15,1.45-112.48Z" style="fill:#37474f"></path><path d="M300.66,272.44l-5.22-26.51s-13.22-1.69-20.08-7.63c0,0,4.5,7.94,17,10.86l5.13,23.41-1.73,40.11Z" style="fill:#263238"></path><path d="M288.11,313.16c-1.27-6.68.52-39.31,1.82-63.13l.16-2.83-1.13-.06L288.8,250c-1.38,25.21-3.1,56.59-1.8,63.4,2.7,14.21,2.91,30.65.61,48.85-1.64,12.94-2.79,29.16-3.38,36.83l1.16-.28c.59-7.66,1.73-23.69,3.34-36.41C291.05,344,290.84,327.49,288.11,313.16Z" style="fill:#263238"></path><path d="M350,353a133.12,133.12,0,0,0-3.9-19.94,119.74,119.74,0,0,1-4.41-27.43c-1-20.35-5.9-68.8-9.84-100.22l-1.15-.06c1.33,10.61,2.78,23.17,4.15,36-6.57.17-10.78-1.58-13.71-21.42-1-6.56-1.62-11.5-2.07-15.19l-1.15-.07c.45,3.72,1.11,8.72,2.1,15.43,2.76,18.68,6.71,22.38,14.33,22.38H335c2.64,24.69,5,50,5.59,63.25A122.39,122.39,0,0,0,345,333.34a131.88,131.88,0,0,1,3.87,19.79c1.26,11.3,3.52,31.82,4.49,43.27.41-.21.77-.41,1.08-.59C353.48,384.2,351.25,364.15,350,353Z" style="fill:#263238"></path></g><g id="freepik--top--inject-465"><path d="M315.44,95.44c12.91,4,23,7.19,33.1,12.77a286.29,286.29,0,0,1-5.34,41.33,219.61,219.61,0,0,0-4,27.83c-.79,13.53-.33,19.58.87,31.26,0,0-16.45,11.47-49.44,9-25.91-1.92-29.28-11.45-29.28-11.45s.43-43.18,1.08-62.28c.86-25.09,2.91-34.87,8.5-39.25,3.61-2.84,22.58-8.26,22.58-8.26Z" style="fill:#BA68C8"></path><g id="freepik--head--inject-465"><path d="M323.67,40.88s4.15.26,6.93,5.45c1.39,2.61,2.43,7.39-1.13,21.12-2.3,8.83-5.14,12.71-6.39,15.18a6.79,6.79,0,0,1-3.89,3.18l.14-10.52.3-7.33s-6-5.29-6.55-10.55c-.74-6.77,1.85-10.64,1.85-10.64Z" style="fill:#37474f"></path><path d="M325.11,41.22c-1.1-5.9-8.69-12.87-23.17-13.46-11.86-.48-18.74,3.68-22.78,10.64S278,54.28,278,54.28l37.21-2.9Z" style="fill:#37474f"></path><path d="M329,78.25c-5.42,2.72-7.88-1.54-7.88-1.54l-.35,20.77c-10.37,14.11-38.55,10.33-27.23-.3l0-5a32.05,32.05,0,0,1-4.72-.4c-4.84-.7-7.91-4.5-9.41-9.7-2.22-7.71-3.21-20.07-.47-33.27.54-2.55,1.6-5.33,3.92-6.52,5.75-2.93,11.16,1.13,19.27,4.17,3.35,1.26,11.46,1.74,13.59.71-2.78,3.14-2.63,13,1.57,16.89a9,9,0,0,0,2.11,2.68c1.78,1.51,3.18-2.47,4.64-4s7-3,9.48,2.06A9.9,9.9,0,0,1,329,78.25Z" style="fill:#ffa8a7"></path><path d="M302.46,54.72,307.81,57a3,3,0,0,0-1.6-3.9A2.83,2.83,0,0,0,302.46,54.72Z" style="fill:#37474f"></path><path d="M282.24,55.24l5.6-1.69a2.81,2.81,0,0,0-3.55-2A3.07,3.07,0,0,0,282.24,55.24Z" style="fill:#37474f"></path><path d="M305.59,60.49a2.37,2.37,0,1,1-2.31-2.43A2.37,2.37,0,0,1,305.59,60.49Z" style="fill:#263238"></path><path d="M288,59.83a2.37,2.37,0,1,1-2.31-2.42A2.15,2.15,0,0,1,288,59.83Z" style="fill:#263238"></path><path d="M296.85,55.33l-1.76,15.08-8-2.84A35.23,35.23,0,0,1,296.85,55.33Z" style="fill:#f28f8f"></path><path d="M317.36,62.86c-.9,10.29-4.48,10.86-8.16,11.32-4.88.61-7.18-2.11-15.85-2.45-5.27-.21-7,1.29-10,2.4-2.25.83-4,.48-4.81-1.53-.87-2.31-1.43-7.61-1.22-11.21a83.39,83.39,0,0,0-.24,16.92c.53,4.88,2.13,9.09,4.72,11.47,3.59,3.28,11.29,4.86,21.08,3.11,9.64-1.74,13.6-5.65,14.91-9,4.22-11,2.94-16.28,4.29-18.34S317.36,62.86,317.36,62.86Z" style="fill:#37474f"></path><path d="M294.41,74.87c5,.09,6.54,1,6.65,4.45.15,4.87-.16,6.5-2,6.68-2.2.21-3.81.28-3.83-1.1s0-2.6.43-3.1c.81-.89.55-1-1.63-1.08s-2.16.35-1.55,1c.45.51.35,2.18.31,3.14s-.3,1.44-3.41,1c-2.72-.37-2.17-2.54-2-6.71C287.55,76.4,288.8,74.77,294.41,74.87Z" style="fill:#ffa8a7"></path><path d="M299.07,75.81,291,76.6a4,4,0,0,0,4.35,3.78A4.27,4.27,0,0,0,299.07,75.81Z" style="fill:#b16668"></path><path d="M298,77a4.46,4.46,0,0,1,1,.12,4.2,4.2,0,0,1-3.63,3.27,3.74,3.74,0,0,1-1.3-.11A3.73,3.73,0,0,1,298,77Z" style="fill:#f28f8f"></path></g></g></g><g id="freepik--Boy--inject-465"><g id="freepik--bottom--inject-465"><path d="M257.72,201.23c-.51,1.84-6.49,23.23-6.49,23.23s5.38,8.81,12.5,6.74c.37-3.74,8.33-16.26,13.12-24.68C273.94,206.32,259.27,201.85,257.72,201.23Z" style="fill:#b16668"></path><path d="M247.37,230.35l22,25.17.28.41c-.33.85-.95,1.73-2.91,1.77-2.59.07-8.9-2.35-12.81-6.42s-4.43-10-4.86-11.42c-.76-2.51-3.48-3.43-3.74-5.91A5.74,5.74,0,0,1,247.37,230.35Z" style="fill:#263238"></path><path d="M266.12,230.66a7.84,7.84,0,0,1-.94,2.14,5.16,5.16,0,0,0-.16,2.94,27.05,27.05,0,0,0,2.38,7.09,56.77,56.77,0,0,0,3.44,6.13,4.77,4.77,0,0,1-1.44,6.56c-1.2.2-3.86.29-7.69-1.57-4.47-2.18-7-4.15-9.14-8.42-1.52-3-1.29-5-2.82-8-.61-1.19-3.29-3.48-3.5-5.78a10.51,10.51,0,0,1,2.22-4.45,12.12,12.12,0,0,0,1.54-2.83c.54-1.6.44-2.33,1-3.09a1,1,0,0,1,1.2-.4l-.35,1.24c-.33,1.72,2.9,4.37,4.48,5.13.61-1.07.68-1.6,1.48-1.86,1-.32,2.24.28,3.15.67a19.9,19.9,0,0,1,3.88,2.4,2.89,2.89,0,0,1,1.26,1.51A1.71,1.71,0,0,1,266.12,230.66Z" style="fill:#BA68C8"></path><path d="M266.12,230.66a7.84,7.84,0,0,1-.94,2.14,5.16,5.16,0,0,0-.16,2.94,27.05,27.05,0,0,0,2.38,7.09,56.77,56.77,0,0,0,3.44,6.13,4.77,4.77,0,0,1-1.44,6.56c-1.2.2-3.86.29-7.69-1.57-4.47-2.18-7-4.15-9.14-8.42-1.52-3-1.29-5-2.82-8-.61-1.19-3.29-3.48-3.5-5.78a10.51,10.51,0,0,1,2.22-4.45,12.12,12.12,0,0,0,1.54-2.83c.54-1.6.44-2.33,1-3.09a1,1,0,0,1,1.2-.4l-.35,1.24c-.33,1.72,2.9,4.37,4.48,5.13.61-1.07.68-1.6,1.48-1.86,1-.32,2.24.28,3.15.67a19.9,19.9,0,0,1,3.88,2.4,2.89,2.89,0,0,1,1.26,1.51A1.71,1.71,0,0,1,266.12,230.66Z" style="opacity:0.25"></path><path d="M267.28,241.81a3.8,3.8,0,0,0-.74-.76,6,6,0,0,0-2-1.09,9.66,9.66,0,0,0-4.62-.47c-.32,0-.38.77,0,.72a9.93,9.93,0,0,1,4.21.62c.58.2,1.13.45,1.68.7a4.14,4.14,0,0,1,1.53,1.21A1.05,1.05,0,0,0,267.28,241.81Z" style="fill:#fafafa"></path><path d="M265.9,238.56a3.19,3.19,0,0,0-.67-.75,5.28,5.28,0,0,0-1-.66,10.07,10.07,0,0,0-1.09-.39,15.83,15.83,0,0,0-2.06-.49c-.61-.1-1.88-.23-1.74.32l0,.09c.24.44,1,.38,1.39.45a15.47,15.47,0,0,1,2,.44,12.09,12.09,0,0,1,1.88.7,4.3,4.3,0,0,1,.84.54,1.27,1.27,0,0,1,.42.57C266.14,239.27,266,238.77,265.9,238.56Z" style="fill:#fafafa"></path><path d="M265.35,236.08a2.37,2.37,0,0,0-1.09-1.73,5.74,5.74,0,0,0-1.65-1,11.26,11.26,0,0,0-2.17-.62l-.77-.12h-.3a.34.34,0,0,1-.1,0h-.07a1.75,1.75,0,0,0-.32,0,.53.53,0,0,0-.29.12.35.35,0,0,0,0,.38.41.41,0,0,0,.1.13l0,0,.06,0a.54.54,0,0,0,.15.09,1.21,1.21,0,0,0,.32.11l.12,0c.22,0,.46,0,.69.06l.13,0h.14a5.46,5.46,0,0,1,.69.1l.35.08.16.05.06,0,.08,0,.1,0,.18.06.34.13a8.23,8.23,0,0,1,1.41.69c.21.13.5.37.69.52a2.72,2.72,0,0,1,.79.91C265.21,236.37,265.37,236.18,265.35,236.08Z" style="fill:#fafafa"></path><path d="M269.68,255.93c2.93-1.94,3.5-4.78,1-8.15s-8.64-5.17-11.49-4.86-5.23,1.42-5.7,4.26c0,0,2.22,4.59,8.71,7.62A11.67,11.67,0,0,0,269.68,255.93Z" style="fill:#fafafa"></path><path d="M263.68,179.48a173.54,173.54,0,0,0-6.11,19c-1.84,7.94-4.16,16.08-4.16,16.08s4.93,6.39,15.74,7.31c0,0,8.2-14.1,13.92-23.58,6.47-10.74,10.84-16.24,8.9-25.16-3-15.24-10.15-33.2-11.1-40.75l-45.79,2.19Z" style="fill:#455a64"></path><path d="M254.36,221.85c.2,1.89,2.37,24,2.37,24s8.21,6.26,14.1,1.75c-1-3.62,1.86-18.17,3.28-27.76C271.33,220.71,256,221.86,254.36,221.85Z" style="fill:#f28f8f"></path><path d="M255,251.82l29.92,16.4.41.28c0,.91-.26,2-2.07,2.71-2.39,1-9.14,1-14.26-1.35s-7.75-7.7-8.67-8.88c-1.62-2.07-4.74-2.8-5.95-5.36A10.84,10.84,0,0,1,255,251.82Z" style="fill:#263238"></path><path d="M272.86,246.23a8.77,8.77,0,0,1-.1,2.34,5,5,0,0,0,.91,2.79,26.7,26.7,0,0,0,4.79,5.76,55.4,55.4,0,0,0,5.42,4.46,4.77,4.77,0,0,1,1,6.64c-1.05.62-3.49,1.67-7.74,1.32-4.95-.41-8-1.35-11.57-4.54-2.49-2.22-3-4.19-5.5-6.4-1-.88-4.59-3-5.63-5a7.15,7.15,0,0,1,.42-4.34c.43-1.55.76-2,.72-2.89-.08-1.69-.43-2.34-.21-3.24a1,1,0,0,1,1-.8l.12,1.28c.31,1.72,4.29,3,6,3.15.18-1.21.06-1.73.71-2.26s2.19-.56,3.18-.52a19.76,19.76,0,0,1,4.49.84,2.84,2.84,0,0,1,1.72,1A1.57,1.57,0,0,1,272.86,246.23Z" style="fill:#BA68C8"></path><path d="M272.86,246.23a8.77,8.77,0,0,1-.1,2.34,5,5,0,0,0,.91,2.79,26.7,26.7,0,0,0,4.79,5.76,55.4,55.4,0,0,0,5.42,4.46,4.77,4.77,0,0,1,1,6.64c-1.05.62-3.49,1.67-7.74,1.32-4.95-.41-8-1.35-11.57-4.54-2.49-2.22-3-4.19-5.5-6.4-1-.88-4.59-3-5.63-5a7.15,7.15,0,0,1,.42-4.34c.43-1.55.76-2,.72-2.89-.08-1.69-.43-2.34-.21-3.24a1,1,0,0,1,1-.8l.12,1.28c.31,1.72,4.29,3,6,3.15.18-1.21.06-1.73.71-2.26s2.19-.56,3.18-.52a19.76,19.76,0,0,1,4.49.84,2.84,2.84,0,0,1,1.72,1A1.57,1.57,0,0,1,272.86,246.23Z" style="opacity:0.15"></path><path d="M278,256.21a3.86,3.86,0,0,0-1-.44,6,6,0,0,0-2.23-.31,9.66,9.66,0,0,0-4.48,1.24c-.28.15-.07.85.25.68a9.89,9.89,0,0,1,4.15-.95c.61,0,1.21,0,1.82,0a4.14,4.14,0,0,1,1.86.58A1.07,1.07,0,0,0,278,256.21Z" style="fill:#fafafa"></path><path d="M275.51,253.68a3.14,3.14,0,0,0-.89-.46,4.49,4.49,0,0,0-1.14-.26,8.84,8.84,0,0,0-1.15,0,16.46,16.46,0,0,0-2.11.28c-.6.13-1.83.47-1.5.93a.23.23,0,0,0,.07.07c.38.33,1,0,1.45-.08a14.32,14.32,0,0,1,2.05-.32,11.25,11.25,0,0,1,2,0,4.16,4.16,0,0,1,1,.2,1.2,1.2,0,0,1,.59.37C276,254.25,275.71,253.83,275.51,253.68Z" style="fill:#fafafa"></path><path d="M274.1,251.57a2.43,2.43,0,0,0-1.64-1.23,6.1,6.1,0,0,0-1.9-.32,11.69,11.69,0,0,0-2.25.21c-.26.05-.51.1-.76.17l-.18.06-.1,0-.1,0-.07,0a1.51,1.51,0,0,0-.28.15.47.47,0,0,0-.22.22.32.32,0,0,0,.1.36.46.46,0,0,0,.15.09h.1l.17,0a1.29,1.29,0,0,0,.34,0l.12,0a5.46,5.46,0,0,0,.66-.19l.13,0,.14,0a5.17,5.17,0,0,1,.68-.16l.35-.05h1a9.29,9.29,0,0,1,1.57.14,7.84,7.84,0,0,1,.83.23,2.83,2.83,0,0,1,1.07.57C274.07,251.89,274.15,251.65,274.1,251.57Z" style="fill:#fafafa"></path><path d="M285.32,268.5c2-2.87,1.53-5.72-2-8s-9.92-1.69-12.47-.37-4.36,3.22-3.76,6c0,0,3.73,3.48,10.87,3.95A11.66,11.66,0,0,0,285.32,268.5Z" style="fill:#fafafa"></path><path d="M234.35,132.33c-.11,4.81-2.13,11.43-1,21.51s10.79,26.72,13.82,31.91,6.8,12.11,6.8,12.11-1.89,13.38-.72,21.45,1.94,16.49,1.94,16.49,6.92,4.17,17.33,1.11c0,0,2.53-16.1,4.43-27,2.14-12.35,3.63-16.33.56-28.71-3.32-13.36-7.77-20.42-7.77-20.42s9.2-14.66,8.76-29.13Z" style="fill:#455a64"></path><path d="M253.76,187.27c-1.75-3.33-3.93-7.47-6.7-13-8.64-17.35-9.1-26.08-6.86-39.1l-.93-.16c-2.28,13.23-1.81,22.1,6.95,39.68,2.77,5.56,4.95,9.71,6.7,13,3.44,6.53,4.86,9.23,4.83,11.34-1.16,7.33-1.29,11.34-.14,24.68.39,4.52.83,9,1.29,13.42a8.06,8.06,0,0,0,.91.23c-.48-4.57-.86-9.08-1.26-13.73-1.14-13.26-1-17.19.14-24.52C258.73,196.72,257.27,194,253.76,187.27Z" style="fill:#37474f"></path><path d="M239.21,153.89,239,153c6-1.05,8.76-6.86,8.13-16.79l1-.06C249,149.35,243.73,153.09,239.21,153.89Z" style="fill:#37474f"></path><path d="M269.71,160.76c-5-7.21-12.8-6.82-17.92-6.53,12.93-4.47,20,4,20,4a23.25,23.25,0,0,0,7.8-9.71c.29,6.94-6.46,11.82-6.46,11.82s5.23,20,6,27.76A194.31,194.31,0,0,0,269.71,160.76Z" style="fill:#37474f"></path></g><g id="freepik--top--inject-465"><path d="M231.3,128.59c-.87-9.36-1.88-19.29-2.28-21.64-.82-4.79-.27-12.47,6-14.69s9.63-3.21,9.63-3.21,11.2-.92,13.89-.92c4.68,0,9.32.3,9.32.3,2.77,1.82,10.1,6.86,11.92,24,.43,4.15,1.39,11.82,3.71,23.11a3.66,3.66,0,0,1-1,3c-8.07,9.37-38.82,13.82-49.28,6.89a4.51,4.51,0,0,1-1.85-4A70.28,70.28,0,0,0,231.3,128.59Z" style="fill:#BA68C8"></path><path d="M231.3,128.59c-.87-9.36-1.88-19.29-2.28-21.64-.82-4.79-.27-12.47,6-14.69s9.63-3.21,9.63-3.21,11.2-.92,13.89-.92c4.68,0,9.32.3,9.32.3,2.77,1.82,10.1,6.86,11.92,24,.43,4.15,1.39,11.82,3.71,23.11a3.66,3.66,0,0,1-1,3c-8.07,9.37-38.82,13.82-49.28,6.89a4.51,4.51,0,0,1-1.85-4A70.28,70.28,0,0,0,231.3,128.59Z" style="fill:#fff;opacity:0.30000000000000004"></path><path d="M242.41,82.8c-4.95-3.93-9.72-5.09-13.83-12.68s-1.49-14.84,2.65-16.8c0,0-.41-7.19,7.46-12,6.21-3.81,15.59-5.4,22.31-2.75,3.67,1.44,6.57,2.75,8.79,5.9a19,19,0,0,1,3.34,12.21A12.67,12.67,0,0,1,269,64.19C266.81,66.18,242.41,82.8,242.41,82.8Z" style="fill:#263238"></path><path d="M240.36,69.85a1,1,0,0,1-.19.22c-1.12,1-1.39-1.18-2.79-2.42A3.2,3.2,0,0,0,234.6,67a4.09,4.09,0,0,0-3.48,2.88,6,6,0,0,0,4.66,7.28,4.86,4.86,0,0,0,5.06-1.78L242.73,90a25.33,25.33,0,0,0,11.74,4.17c8.78.92,10.19-3.35,6.71-5.78l-.49-3.76a20.61,20.61,0,0,0,6.16-1.78,12.93,12.93,0,0,0,6.93-10.1,17.29,17.29,0,0,0-2.18-11.3c-1-1.61-.44-3-.65-4.18a11,11,0,0,0-.92-2.82c-2.71.81-9.86.93-15.83-3.23a13.49,13.49,0,0,0,8.72,5.67c-7.53,3.78-15.7.53-18.79-4a12.1,12.1,0,0,1,0,6.71,12.56,12.56,0,0,1-3.78,5.69,7.49,7.49,0,0,1,.41,3.48A2.3,2.3,0,0,1,240.36,69.85Z" style="fill:#f28f8f"></path><path d="M253.68,60.59l-4.23,2.78a2.66,2.66,0,0,1,.76-3.6A2.47,2.47,0,0,1,253.68,60.59Z" style="fill:#263238"></path><path d="M257,72.6a15.67,15.67,0,0,0,4.17.26,1.17,1.17,0,0,1,1,1.88,3.85,3.85,0,0,1-3.39,1.32,3.4,3.4,0,0,1-3.12-1.92A1.16,1.16,0,0,1,257,72.6Z" style="fill:#b16668"></path><path d="M260.13,75.71l0-.09a3.48,3.48,0,0,0-4.24-1.8,1,1,0,0,0,.06.25,3.08,3.08,0,0,0,2.85,1.76A4.48,4.48,0,0,0,260.13,75.71Z" style="fill:#ffa8a7"></path><path d="M251.16,66.35c.24,1.12,1.26-.21,2.38-.45s1.93.7,1.69-.42a2.08,2.08,0,0,0-4.07.87Z" style="fill:#263238"></path><path d="M265.14,62.89c.24,1.12,1-.19,2.08-.43s2.22.69,2-.44a2.08,2.08,0,1,0-4.06.87Z" style="fill:#263238"></path><path d="M269.51,58.42l-5.07-.62a2.45,2.45,0,0,1,2.75-2.25A2.68,2.68,0,0,1,269.51,58.42Z" style="fill:#263238"></path><polygon points="259.01 61.49 261.27 70.33 265.96 67.92 259.01 61.49" style="fill:#b16668"></polygon><path d="M260.69,84.67a23.24,23.24,0,0,1-12.2-1.91,12.66,12.66,0,0,1-5.08-4.93s1.33,3.66,3.41,5.38C252.27,87.72,261,87,261,87Z" style="fill:#b16668"></path></g></g><g id="freepik--man-arms--inject-465"><path d="M237.18,166.52c.93,2.18,6.72.1,11.07,1.16a44.26,44.26,0,0,0,11.12.91c2.66,0,2.46,2.14-.21,3.83s-8.32,1.2-9,1.65-2.72,2.48,1.48,4.06,9.57,3.09,11.19,5.67-10.84,7.6-15,4.41-4.22-2.56-6.44-4.78c-7-7-6.43-14-5.23-19.33Z" style="fill:#f28f8f"></path><path d="M315,165.67c-6.54,3.28-19.6,7.58-28.73,11.11-4.36,1.47-8,3.37-12.61,3.93-3,.29-7-1.69-9.64-2.9-5.56-2.14-10.59-2.3-16.17-4.45-2.34-.91-2.13,2.85,0,5s8.65,3,8.65,6.23a1,1,0,0,1-.76.4c-11.63.39-15.41-2.67-16.73-4.37a5,5,0,0,0-.19,3.25c.33,1.4,1.5,1.92,2,3.28s-.27,2,.7,3c.47.35.91.73,1.38,1.09,1.14.7,1.39,2,1.61,3.21.6,2.47,2.26,3.67,4.52,4.62a57,57,0,0,0,12.37,3c7.36.49,12.32-2.29,18.52-3.83,4.28-1.06,37.31-7.67,45.53-10.13,10.11-3,10.92-6.77,14.06-14.17,5-11.75,8.24-19.41,11.2-27.39,4.53-12.18,11.22-27,1.17-35.64a39.36,39.36,0,0,0-8.2-4.81s-9.92,4.31-15.44,20.46C328.19,126.58,315.5,163.87,315,165.67Z" style="fill:#ffa8a7"></path><path d="M343.54,105.63a30.32,30.32,0,0,1,10.55,6.87c1.26,1.44,5.4,7.77,2.44,18.62S345.75,161,345.75,161s-3.43,1.62-13.94-1.48-12.93-7.47-12.93-7.47,6.87-21,8.62-26.61S335.6,108.55,343.54,105.63Z" style="fill:#37474f"></path></g><g id="freepik--boy-arms--inject-465"><path d="M320.75,97.44l.1-6c1.76.28,4.24.44,8.14,5,3.41,4,3.27,6.06,3.47,9.49.18,3,.78,5.2-.33,5.22s-1.85-1.63-1.93-2.71a18.54,18.54,0,0,0-.85-3.59s-.25,3.83-1.4,5a19.7,19.7,0,0,1-4.95,3.65c-1.54.66-2.09.62-2.51-.34-.83.57-1.64,2-2.44,2.36a1.66,1.66,0,0,1-2.08-1.15,1.91,1.91,0,0,1-1.46-2c-.06-1.72,1.65-3.78,2.51-5.15S320.75,97.44,320.75,97.44Z" style="fill:#b16668"></path><path d="M327,108.18a1.55,1.55,0,0,0-1.22-.56,6.48,6.48,0,0,0-1.32,0,12.16,12.16,0,0,0-1.59.22c-.6.15-1.2.31-1.8.45a12.27,12.27,0,0,1-2.25.36c-.29,0-.67-.05-.7-.34a.45.45,0,0,1,.28-.41,6.24,6.24,0,0,1,1.19-.5l5.42-1.8a2,2,0,0,0,1.4-1,1.57,1.57,0,0,0-.59-1.62,1,1,0,0,1-.3-.35.93.93,0,0,1-.06-.34,2.5,2.5,0,0,0-1.93-2.19.2.2,0,0,1-.13-.06.18.18,0,0,1,0-.14,1.46,1.46,0,0,0-.35-.79,1.58,1.58,0,0,0-.95-.56l-.24-.06a2.56,2.56,0,0,0-.73-.15,20.85,20.85,0,0,0-3.26-.23,10.5,10.5,0,0,0-2.8.29,2.52,2.52,0,0,0,1-1.7c0-1-.92-.55-1.76-.6s-2.86-.09-3.58-.18-1.39.45-2.95,1.25a23.76,23.76,0,0,0-4.1,2.47c-.43.5-1.4,2-2.79,4-1,1.52-1.91,1.93-5.31,2.73-6,1.43-23.22,4-23.22,4l-20.47-8.84s-9.79-8.39-18-7.46c-9.07,5.78-6.21,18.91,5.26,23.14,8.31,3.06,14.45,5.7,21.28,7.79,9.34,2.85,10.41,3.47,15.49,1.93,9.2-2.14,25.27-8.85,26.77-9.24a7.78,7.78,0,0,1,1.36-.17l.85-.07a1.81,1.81,0,0,0,.4,0,1,1,0,0,1,.29,0l.71,0c.48,0,.95-.08,1.42-.14a21.65,21.65,0,0,0,5.49-1.52c.2-.09.4-.17.6-.28.87-.48,1.75-.94,2.63-1.38s1.79-.88,2.69-1.29,1.82-.8,2.74-1.17,1.83-.73,2.76-1.07c.35-.13.69-.25,1-.41.17-.08.35-.17.52-.27a3.68,3.68,0,0,0,.51-.37,2.79,2.79,0,0,0,.4-.44.31.31,0,0,0,.05-.21A1.24,1.24,0,0,0,327,108.18Z" style="fill:#f28f8f"></path><path d="M317.18,101.47c.91-.27,1.84-.46,2.76-.68a16.77,16.77,0,0,1,3.58-.64h0a.2.2,0,0,1-.13-.06.18.18,0,0,1,0-.14,1.71,1.71,0,0,0-.09-.3,11.57,11.57,0,0,0-3.14.5,22.39,22.39,0,0,0-2.56.81,19.55,19.55,0,0,0-2.84,1.18s-.09.16,0,.14C315.52,102.05,316.34,101.72,317.18,101.47Z" style="fill:#b16668"></path><path d="M321.08,103.38a12.34,12.34,0,0,1,4.48-.58.64.64,0,0,1-.1-.13.77.77,0,0,1,0-.27,8.37,8.37,0,0,0-4.2.34,22.39,22.39,0,0,0-2.56.81,18.49,18.49,0,0,0-2.84,1.18s-.08.16,0,.14c.85-.22,1.66-.55,2.5-.8S320.16,103.61,321.08,103.38Z" style="fill:#b16668"></path><path d="M310.65,96a2.39,2.39,0,0,0-1.32.41l-1.23.69c-.82.45-1.64.9-2.45,1.38-.4.24-.8.48-1.19.74a3.22,3.22,0,0,0-1,.9c-.55.76-1,1.55-1.57,2.34a17,17,0,0,1-1.65,2.32,6,6,0,0,1-2.54,1.35c-1.82.53-3.66.91-5.5,1.28-3.7.69-5.07.88-8.78,1.46s-7.42,1.11-11.14,1.6l11.09-1.94c3.7-.65,5.06-.83,8.74-1.55,1.84-.36,3.68-.72,5.47-1.24a5.51,5.51,0,0,0,2.39-1.23,21.17,21.17,0,0,0,1.64-2.24c.53-.78,1.06-1.55,1.63-2.31a2.3,2.3,0,0,1,.5-.54c.19-.15.39-.28.59-.41.4-.25.8-.49,1.21-.71.83-.46,1.67-.87,2.51-1.29l1.25-.65A2.49,2.49,0,0,1,310.65,96Z" style="fill:#b16668"></path><path d="M315,98.44s-2.31.55-2.91.75-2.19,1.18-3.32,1.25a1.47,1.47,0,0,1-1.47-.58,2.66,2.66,0,0,0,2.14-.1c1.49-.5,1.75-1.51,1.57-2.12.44.24.46,1.31.46,1.31S314.11,98.13,315,98.44Z" style="fill:#b16668"></path><path d="M234.08,92.64c-5,2.09-7.06,7.27-5.82,14s6.91,9.43,10.34,11.11,15.79,5.7,15.79,5.7a24.72,24.72,0,0,1,2.11-11.1c2.54-5.46,5.11-6.56,5.11-6.56s-4.33-2.22-9.12-4.87S240.55,90.34,234.08,92.64Z" style="fill:#37474f"></path></g></g><path d="M206.1,173.61c10.94,3.35,29.17,8.65,42.23,10.5,5.5.77,11-2.29,17.63-3.1,2.41-.29,6.26-.49,8.85-1.47,1.65.09.57,3-.53,4-2.31,1.94-7.22,2.79-8.51,4.8-1.75,2.73,11.52,8.82,21.4,8.18.33,4.75-7.86,4.88-12,6.31-7.65,6-19.83-.14-28.3-.87-7.92-.69-34-2.89-47.73-4.55-10.47-1.27-11.79-5.08-16-11.94-6.67-10.88-11-18-15.13-25.43-9.31-15.8-17-31.18,1-41,12.49.49,29.89,41,37.13,54.66" style="fill:#b16668"></path></g></g></svg>